<svg xmlns="http://www.w3.org/2000/svg" viewBox="0 0 32 32">
  <!-- Plume vermeil, fond transparent -->

  <!-- Corps de la plume -->
  <path d="M25 3 C28 6 27 12 23 17 C20 21 16 24 13 26 L11 30 L10 29 L12 24 C9 25 7 22 8 20 C10 15 15 11 19 8 C22 5 24 3 25 3 Z"
        fill="#C4622A"/>

  <!-- Reflet intérieur léger -->
  <path d="M25 3 C27 7 25 13 21 17 C18 21 14 24 12 24 L13 26 C16 24 20 21 23 17 C27 12 28 6 25 3 Z"
        fill="#E07848" opacity="0.45"/>

  <!-- Nervure centrale -->
  <path d="M19 8 C17 13 14 19 12 24" stroke="#A84820" stroke-width="0.7" fill="none" opacity="0.5"/>

  <!-- Bec / plume fine -->
  <path d="M11 30 L13 24 L10 29 Z" fill="#C4622A"/>
</svg>
